	 <svg viewbox="0 0 100 100" xmlns="http://www.w3.org/2000/svg">
     <symbol id="sym">
			<circle cx="50" cy="45" r="45" fill="none" stroke="white"/>
			<polygon points="10,95 50,25 90,95" fill="none" stroke="white"  />
			<circle cx="10" cy="95" r="4"  stroke="white" fill="white"/>
			<circle cx="50" cy="95" r="4"  stroke="white" fill="white"/>
			<circle cx="90" cy="95" r="4"  stroke="white" fill="white"/>
        </symbol>

        <symbol id="symb">
			<circle cx="50" cy="45" r="45" fill="none" stroke="black"/>
			<polygon points="10,95 50,25 90,95" fill="none" stroke="black"  />
			<circle cx="10" cy="95" r="4"  stroke="white" fill="black"/>
			<circle cx="50" cy="95" r="4"  stroke="white" fill="black"/>
			<circle cx="90" cy="95" r="4"  stroke="white" fill="black"/>
        </symbol>

        <symbol id="icon-ruler" viewBox="0 0 32 32">
            <path d="M6.058 6.835l0.686 0.686-2.808 2.808 2.188 2.188 2.821-2.821 0.641 0.641-2.821 2.822 2.16 2.159 6.416-6.416-7.812-7.766-6.393 6.393 2.114 2.115 2.808-2.809zM23.099 16.659l-6.416 6.417 2.159 2.159 2.822-2.821 0.641 0.641-2.821 2.821 2.188 2.188 2.807-2.808 0.686 0.686-2.807 2.808 2.113 2.114 6.394-6.394-7.766-7.811zM29.822 8.451c0.781-0.782 0.787-2.045 0.012-2.821l-3.512-3.511c-0.775-0.775-2.039-0.771-2.82 0.012l-2.17 2.17 6.32 6.32 2.17-2.17zM3.398 25.942l2.623 2.623 5.284-1.877-6.030-6.030-1.877 5.284zM20.65 4.943l-14.885 14.886 6.369 6.369 14.886-14.886-6.37-6.369zM8.657 19.816l11.981-11.981 0.698 0.698-11.982 11.982-0.697-0.699zM10.053 21.213l11.98-11.981 0.698 0.698-11.981 11.98-0.697-0.697zM11.449 22.608l11.981-11.981 0.697 0.698-11.98 11.981-0.698-0.698zM1.954 30.010l3.066-1.117-1.949-1.949-1.117 3.066z"></path>
        </symbol>

        <symbol id="icon-developer_mode" viewBox="0 0 24 24">
            <path d="M17.016 18.984v-1.969h1.969v3.984q0 0.797-0.586 1.406t-1.383 0.609h-10.031q-0.797 0-1.383-0.609t-0.586-1.406v-3.984h1.969v1.969h10.031zM9.984 15.188l-1.406 1.406-4.594-4.594 4.594-4.594 1.406 1.406-3.141 3.188zM15.422 16.594l-1.406-1.406 3.141-3.188-3.141-3.188 1.406-1.406 4.594 4.594zM6.984 5.016v1.969h-1.969v-3.984q0-0.797 0.586-1.406t1.383-0.609l10.031 0.047q0.797 0 1.383 0.586t0.586 1.383v3.984h-1.969v-1.969h-10.031z"></path>
        </symbol>

        <symbol id="icon-insert-template" viewBox="0 0 32 32">
            <path d="M12 6h4v2h-4zM18 6h4v2h-4zM28 6v8h-6v-2h4v-4h-2v-2zM10 12h4v2h-4zM16 12h4v2h-4zM6 8v4h2v2h-4v-8h6v2zM12 18h4v2h-4zM18 18h4v2h-4zM28 18v8h-6v-2h4v-4h-2v-2zM10 24h4v2h-4zM16 24h4v2h-4zM6 20v4h2v2h-4v-8h6v2zM30 2h-28v28h28v-28zM32 0v0 32h-32v-32h32z"></path>
        </symbol>
		</svg>